Coordinates
version=1
nRows=32
nColumns=12
inDegrees=yes

Units are S.I. units (second, meters, Newtons, ...)
Angles are in degrees

endheader
time	SC_y	SC_z	SC_x	AC_y	AC_z	AC_x	GH_y	GH_z	GH_yy	EL_x	PS_y
       0.0              -25.22          35.66          29.11          41.33         -7.557           7.26          86.67         -8.845         -139.1          24.17          155.2
   0.04545              -25.21          35.66          29.11          41.33         -7.557          7.257          86.67         -8.832         -139.1          24.18          155.2
    0.0909              -25.21          35.66           29.1          41.34         -7.558          7.255          86.67         -8.817         -139.1           24.2          155.2
    0.1364              -25.21          35.66           29.1          41.34         -7.558          7.253          86.67         -8.801         -139.1          24.22          155.2
    0.1818              -25.21          35.65           29.1          41.35         -7.559           7.25          86.67         -8.785         -139.0          24.24          155.1
    0.2273              -25.21          35.65          29.09          41.35         -7.559          7.248          86.67         -8.767         -139.0          24.26          155.1
    0.2727               -25.2          35.64          29.09          41.36         -7.559          7.245          86.67         -8.748         -139.0          24.28          155.1
    0.3182               -25.2          35.64          29.09          41.36          -7.56          7.242          86.67         -8.728         -139.0           24.3          155.0
    0.3636               -25.2          35.64          29.08          41.37          -7.56          7.238          86.67         -8.707         -139.0          24.33          155.0
    0.4091              -25.19          35.63          29.08          41.37         -7.561          7.235          86.68         -8.684         -139.0          24.36          155.0
    0.4545              -25.19          35.63          29.07          41.38         -7.561          7.231          86.68         -8.659         -139.0          24.39          154.9
       0.5              -25.19          35.62          29.07          41.39         -7.562          7.227          86.68         -8.632         -138.9          24.42          154.9
    0.5454              -25.18          35.61          29.06           41.4         -7.563          7.222          86.68         -8.603         -138.9          24.45          154.9
    0.5909              -25.18          35.61          29.06          41.41         -7.563          7.217          86.68         -8.572         -138.9          24.49          154.8
    0.6363              -25.17           35.6          29.05          41.42         -7.564          7.212          86.68         -8.538         -138.9          24.53          154.8
    0.6818              -25.17          35.59          29.04          41.43         -7.565          7.207          86.68         -8.502         -138.8          24.57          154.7
    0.7272              -25.16          35.59          29.04          41.44         -7.566          7.201          86.68         -8.462         -138.8          24.62          154.7
    0.7727              -25.16          35.58          29.03          41.45         -7.567          7.194          86.68         -8.419         -138.8          24.67          154.6
    0.8181              -25.15          35.57          29.02          41.46         -7.568          7.187          86.69         -8.372         -138.7          24.72          154.5
    0.8636              -25.14          35.56          29.01          41.48         -7.569          7.179          86.69          -8.32         -138.7          24.78          154.5
     0.909              -25.13          35.55           29.0          41.49          -7.57           7.17          86.69         -8.263         -138.7          24.85          154.4
    0.9545              -25.12          35.53          28.99          41.51         -7.571           7.16          86.69         -8.201         -138.6          24.92          154.3
    0.9999              -25.12          35.52          28.98          41.53         -7.573           7.15          86.69         -8.132         -138.6           25.0          154.2
     1.045               -25.1           35.5          28.96          41.55         -7.575          7.138           86.7         -8.055         -138.5          25.09          154.1
     1.091              -25.09          35.49          28.95          41.57         -7.577          7.125           86.7          -7.97         -138.4          25.19          153.9
     1.136              -25.08          35.47          28.93           41.6         -7.579           7.11           86.7         -7.875         -138.4           25.3          153.8
     1.182              -25.06          35.45          28.91          41.63         -7.581          7.094          86.71         -7.769         -138.3          25.43          153.6
     1.227              -25.05          35.42          28.89          41.66         -7.584          7.075          86.71          -7.65         -138.2          25.57          153.5
     1.273              -25.03          35.39          28.86           41.7         -7.587          7.055          86.71         -7.515         -138.1          25.73          153.3
     1.318              -25.01          35.36          28.83          41.74          -7.59          7.031          86.72         -7.361         -138.0          25.91          153.0
     1.364              -24.98          35.33           28.8          41.79         -7.594          7.004          86.73         -7.186         -137.9          26.11          152.8
     1.409              -24.95          35.29          28.76          41.85         -7.598          6.973          86.73         -6.985         -137.7          26.35          152.5
